<svg width="14" height="16" viewBox="0 0 14 16" fill="none" xmlns="http://www.w3.org/2000/svg">
<path fill-rule="evenodd" clip-rule="evenodd" d="M6.99992 1.33333C5.58543 1.33333 4.22888 1.89524 3.22868 2.89543C2.22849 3.89562 1.66659 5.25218 1.66659 6.66667C1.66659 8.73204 3.01041 10.7362 4.48389 12.2915C5.20699 13.0548 5.93236 13.6796 6.4777 14.1139C6.68066 14.2755 6.85793 14.4101 6.99992 14.5151C7.1419 14.4101 7.31918 14.2755 7.52213 14.1139C8.06747 13.6796 8.79284 13.0548 9.51595 12.2915C10.9894 10.7362 12.3333 8.73204 12.3333 6.66667C12.3333 5.25218 11.7713 3.89562 10.7712 2.89543C9.77096 1.89524 8.41441 1.33333 6.99992 1.33333ZM6.99992 15.3333C6.63012 15.888 6.62995 15.8879 6.62976 15.8878L6.62785 15.8865L6.62341 15.8835L6.60813 15.8732C6.59515 15.8644 6.57664 15.8517 6.55296 15.8353C6.50561 15.8025 6.43756 15.7547 6.35178 15.6928C6.18028 15.5689 5.93749 15.3881 5.64713 15.1569C5.06747 14.6954 4.29284 14.0286 3.51595 13.2085C1.98943 11.5972 0.333252 9.26796 0.333252 6.66667C0.333252 4.89856 1.03563 3.20286 2.28587 1.95262C3.53612 0.702379 5.23181 0 6.99992 0C8.76803 0 10.4637 0.702379 11.714 1.95262C12.9642 3.20286 13.6666 4.89856 13.6666 6.66667C13.6666 9.26796 12.0104 11.5972 10.4839 13.2085C9.70699 14.0286 8.93236 14.6954 8.3527 15.1569C8.06235 15.3881 7.81955 15.5689 7.64806 15.6928C7.56228 15.7547 7.49423 15.8025 7.44688 15.8353C7.4232 15.8517 7.40469 15.8644 7.39171 15.8732L7.37643 15.8835L7.37199 15.8865L7.37058 15.8875C7.37039 15.8876 7.36972 15.888 6.99992 15.3333ZM6.99992 15.3333L7.36972 15.888C7.14579 16.0373 6.85369 16.0371 6.62976 15.8878L6.99992 15.3333Z" fill="#A3A3A3"/>
<path fill-rule="evenodd" clip-rule="evenodd" d="M6.99992 5.33333C6.26354 5.33333 5.66659 5.93029 5.66659 6.66667C5.66659 7.40305 6.26354 8 6.99992 8C7.7363 8 8.33325 7.40305 8.33325 6.66667C8.33325 5.93029 7.7363 5.33333 6.99992 5.33333ZM4.33325 6.66667C4.33325 5.19391 5.52716 4 6.99992 4C8.47268 4 9.66659 5.19391 9.66659 6.66667C9.66659 8.13943 8.47268 9.33333 6.99992 9.33333C5.52716 9.33333 4.33325 8.13943 4.33325 6.66667Z" fill="#A3A3A3"/>
</svg>
