<svg width="14" height="14" viewBox="0 0 14 14" fill="none" xmlns="http://www.w3.org/2000/svg">
<path fill-rule="evenodd" clip-rule="evenodd" d="M2.33325 1.66668C2.15644 1.66668 1.98687 1.73691 1.86185 1.86194C1.73682 1.98696 1.66659 2.15653 1.66659 2.33334V11.3905L3.19518 9.86194C3.32021 9.73692 3.48977 9.66668 3.66659 9.66668H11.6666C11.8434 9.66668 12.013 9.59644 12.138 9.47141C12.263 9.34639 12.3333 9.17682 12.3333 9.00001V2.33334C12.3333 2.15653 12.263 1.98696 12.138 1.86194C12.013 1.73691 11.8434 1.66668 11.6666 1.66668H2.33325ZM0.919038 0.91913C1.29411 0.544057 1.80282 0.333344 2.33325 0.333344H11.6666C12.197 0.333344 12.7057 0.544057 13.0808 0.91913C13.4559 1.2942 13.6666 1.80291 13.6666 2.33334V9.00001C13.6666 9.53044 13.4559 10.0392 13.0808 10.4142C12.7057 10.7893 12.197 11 11.6666 11H3.94273L1.47132 13.4714C1.28066 13.6621 0.993913 13.7191 0.744796 13.6159C0.49568 13.5127 0.333252 13.2697 0.333252 13V2.33334C0.333252 1.80291 0.543966 1.2942 0.919038 0.91913Z" fill="#4894FF"/>
</svg>
