<svg width="14" height="18" viewBox="0 0 14 18" fill="none" xmlns="http://www.w3.org/2000/svg">
<path fill-rule="evenodd" clip-rule="evenodd" d="M13 6C13.5523 6 14 6.44772 14 7V17C14 17.5523 13.5523 18 13 18C12.4477 18 12 17.5523 12 17V7C12 6.44772 12.4477 6 13 6Z" fill="#464646"/>
<path fill-rule="evenodd" clip-rule="evenodd" d="M7 0C7.55228 0 8 0.447715 8 1V17C8 17.5523 7.55228 18 7 18C6.44772 18 6 17.5523 6 17V1C6 0.447715 6.44772 0 7 0Z" fill="#464646"/>
<path fill-rule="evenodd" clip-rule="evenodd" d="M1 10C1.55228 10 2 10.4477 2 11V17C2 17.5523 1.55228 18 1 18C0.447715 18 0 17.5523 0 17V11C0 10.4477 0.447715 10 1 10Z" fill="#464646"/>
</svg>
