<svg width="16" height="12" viewBox="0 0 16 12" fill="none" xmlns="http://www.w3.org/2000/svg">
<path fill-rule="evenodd" clip-rule="evenodd" d="M15.6384 2.07389C15.8604 2.18816 16 2.41694 16 2.66667V9.33334C16 9.58306 15.8604 9.81184 15.6384 9.92611C15.4163 10.0404 15.149 10.021 14.9458 9.87582L10.2792 6.54249C10.104 6.41735 10 6.2153 10 6C10 5.7847 10.104 5.58265 10.2792 5.45751L14.9458 2.12418C15.149 1.97903 15.4163 1.95962 15.6384 2.07389ZM11.8136 6L14.6667 8.03788V3.96213L11.8136 6Z" fill="#A3A3A3"/>
<path fill-rule="evenodd" clip-rule="evenodd" d="M2 2.00002C1.63181 2.00002 1.33333 2.2985 1.33333 2.66669V9.33335C1.33333 9.70154 1.63181 10 2 10H9.33333C9.70152 10 10 9.70154 10 9.33335V2.66669C10 2.2985 9.70152 2.00002 9.33333 2.00002H2ZM0 2.66669C0 1.56212 0.89543 0.666687 2 0.666687H9.33333C10.4379 0.666687 11.3333 1.56212 11.3333 2.66669V9.33335C11.3333 10.4379 10.4379 11.3334 9.33333 11.3334H2C0.89543 11.3334 0 10.4379 0 9.33335V2.66669Z" fill="#A3A3A3"/>
</svg>
