<svg width="24" height="16" viewBox="0 0 24 16" fill="none" xmlns="http://www.w3.org/2000/svg">
<path fill-rule="evenodd" clip-rule="evenodd" d="M23.4576 2.11084C23.7907 2.28224 24 2.62542 24 3V13C24 13.3746 23.7907 13.7178 23.4576 13.8892C23.1245 14.0606 22.7236 14.0315 22.4188 13.8137L15.4188 8.81374C15.156 8.62603 15 8.32296 15 8C15 7.67705 15.156 7.37398 15.4188 7.18627L22.4188 2.18627C22.7236 1.96855 23.1245 1.93943 23.4576 2.11084ZM17.7205 8L22 11.0568V4.94319L17.7205 8Z" fill="white"/>
<path fill-rule="evenodd" clip-rule="evenodd" d="M3 2C2.44772 2 2 2.44772 2 3V13C2 13.5523 2.44772 14 3 14H14C14.5523 14 15 13.5523 15 13V3C15 2.44772 14.5523 2 14 2H3ZM0 3C0 1.34315 1.34315 0 3 0H14C15.6569 0 17 1.34315 17 3V13C17 14.6569 15.6569 16 14 16H3C1.34315 16 0 14.6569 0 13V3Z" fill="white"/>
</svg>
