<svg width="20" height="24" viewBox="0 0 20 24" fill="none" xmlns="http://www.w3.org/2000/svg">
<path fill-rule="evenodd" clip-rule="evenodd" d="M10 2C7.87827 2 5.84344 2.84285 4.34315 4.34315C2.84285 5.84344 2 7.87827 2 10C2 13.0981 4.01574 16.1042 6.22595 18.4373C7.31061 19.5822 8.39867 20.5195 9.21668 21.1708C9.52111 21.4133 9.78702 21.6152 10 21.7726C10.213 21.6152 10.4789 21.4133 10.7833 21.1708C11.6013 20.5195 12.6894 19.5822 13.774 18.4373C15.9843 16.1042 18 13.0981 18 10C18 7.87827 17.1571 5.84344 15.6569 4.34315C14.1566 2.84285 12.1217 2 10 2ZM10 23C9.4453 23.8321 9.44505 23.8319 9.44476 23.8317L9.4419 23.8298L9.43524 23.8253L9.41232 23.8098C9.39285 23.7966 9.36508 23.7776 9.32956 23.753C9.25853 23.7038 9.15646 23.6321 9.02779 23.5392C8.77055 23.3534 8.40636 23.0822 7.97082 22.7354C7.10133 22.043 5.93939 21.0428 4.77405 19.8127C2.48426 17.3958 0 13.9019 0 10C5.96046e-08 7.34784 1.05357 4.8043 2.92893 2.92893C4.8043 1.05357 7.34784 0 10 0C12.6522 0 15.1957 1.05357 17.0711 2.92893C18.9464 4.8043 20 7.34784 20 10C20 13.9019 17.5157 17.3958 15.226 19.8127C14.0606 21.0428 12.8987 22.043 12.0292 22.7354C11.5936 23.0822 11.2295 23.3534 10.9722 23.5392C10.8435 23.6321 10.7415 23.7038 10.6704 23.753C10.6349 23.7776 10.6072 23.7966 10.5877 23.8098L10.5648 23.8253L10.5581 23.8298L10.556 23.8312C10.5557 23.8314 10.5547 23.8321 10 23ZM10 23L10.5547 23.8321C10.2188 24.056 9.78066 24.0556 9.44476 23.8317L10 23Z" fill="white"/>
<path fill-rule="evenodd" clip-rule="evenodd" d="M10 8C8.89543 8 8 8.89543 8 10C8 11.1046 8.89543 12 10 12C11.1046 12 12 11.1046 12 10C12 8.89543 11.1046 8 10 8ZM6 10C6 7.79086 7.79086 6 10 6C12.2091 6 14 7.79086 14 10C14 12.2091 12.2091 14 10 14C7.79086 14 6 12.2091 6 10Z" fill="white"/>
</svg>
